# xmcd
#
# Track frame offsets: 
#        150
#        13699
#        25997
#        44962
#        57884
#        72210
#        101902
#
# Disc length: 1951 seconds
#
# Revision: 2
# Processed by: cddbd v1.5.2PL0 Copyright (c) Steve Scherf et al.
# Submitted via: ExactAudioCopy v1.3
#
DISCID=62079d07
DTITLE=Tequilajazzz - Абориген
DYEAR=2009
DGENRE=Rock
TTITLE0=Кокаин
TTITLE1=Розенбом
TTITLE2=Абориген
TTITLE3=Небо молчит
TTITLE4=Солнце
TTITLE5=Бай-бай-бай
TTITLE6=video
EXTD=YEAR: 1995
EXTT0=
EXTT1=
EXTT2=
EXTT3=
EXTT4=
EXTT5=
EXTT6=
PLAYORDER=
